<?xml version="1.0" encoding="UTF-8"?>
<svg xmlns="http://www.w3.org/2000/svg" height="250" width="350">
   <g transform="translate(50, 200)">
      <line x1="0"
            y1="-25"
            x2="170"
            y2="-25"
            stroke="grey"
            stroke-dasharray="5,5"/>
      <text x="-7" y="-19" font-size="12" text-anchor="end">5</text>
      <line x1="0"
            y1="-50"
            x2="170"
            y2="-50"
            stroke="grey"
            stroke-dasharray="5,5"/>
      <text x="-7" y="-46" font-size="12" text-anchor="end">10</text>
      <line x1="0"
            y1="-75"
            x2="170"
            y2="-75"
            stroke="grey"
            stroke-dasharray="5,5"/>
      <text x="-7" y="-69" font-size="12" text-anchor="end">15</text>
      <line x1="0"
            y1="-100"
            x2="170"
            y2="-100"
            stroke="grey"
            stroke-dasharray="5,5"/>
      <text x="-7" y="-96" font-size="12" text-anchor="end">20</text>
      <line x1="0"
            y1="-125"
            x2="170"
            y2="-125"
            stroke="grey"
            stroke-dasharray="5,5"/>
      <text x="-7" y="-119" font-size="12" text-anchor="end">25</text>
      <line x1="0"
            y1="-150"
            x2="170"
            y2="-150"
            stroke="grey"
            stroke-dasharray="5,5"/>
      <text x="-7" y="-146" font-size="12" text-anchor="end">30</text>
      <line x1="0"
            y1="-175"
            x2="170"
            y2="-175"
            stroke="grey"
            stroke-dasharray="5,5"/>
      <text x="-7" y="-169" font-size="12" text-anchor="end">35</text>
      <rect x="0"
            y="-170"
            height="170"
            width="30"
            fill="blue"
            stroke="black"/>
      <rect x="40"
            y="-70"
            height="70"
            width="30"
            fill="red"
            stroke="black"/>
      <rect x="80"
            y="-95"
            height="95"
            width="30"
            fill="darkorange"
            stroke="black"/>
      <rect x="120"
            y="-25"
            height="25"
            width="30"
            fill="yellow"
            stroke="black"/>
      <text x="15" y="12" font-size="12" text-anchor="middle">Book</text>
      <text x="15" y="22" font-size="12" text-anchor="middle">I</text>
      <text x="55" y="12" font-size="12" text-anchor="middle">Book</text>
      <text x="55" y="22" font-size="12" text-anchor="middle">II</text>
      <text x="95" y="12" font-size="12" text-anchor="middle">Book</text>
      <text x="95" y="22" font-size="12" text-anchor="middle">IV</text>
      <text x="135" y="12" font-size="12" text-anchor="middle">Book</text>
      <text x="134" y="22" font-size="12" text-anchor="middle">VIII</text>
      <line x1="0"
            y1="0"
            x2="0"
            y2="-180"
            stroke="black"
            stroke-width="3"
            stroke-linejoin="square"
            stroke-linecap="square"/>
      <line x1="0"
            y1="0"
            x2="170"
            y2="0"
            stroke="black"
            stroke-width="3"
            stroke-linejoin="square"
            stroke-linecap="square"/>
   </g>
</svg>
