<?xml version="1.0" encoding="UTF-8"?>
<svg xmlns="http://www.w3.org/2000/svg" height="400" width="600">
   <g transform="translate(100, 250)">
      <line x1="0"
            y1="-40"
            x2="170"
            y2="-40"
            stroke="grey"
            stroke-dasharray="5,5"/>
      <text x="-7" y="-36" font-size="12" text-anchor="end">4</text>
      <line x1="0"
            y1="-80"
            x2="170"
            y2="-80"
            stroke="grey"
            stroke-dasharray="5,5"/>
      <text x="-7" y="-76" font-size="12" text-anchor="end">8</text>
      <line x1="0"
            y1="-120"
            x2="170"
            y2="-120"
            stroke="grey"
            stroke-dasharray="5,5"/>
      <text x="-7" y="-116" font-size="12" text-anchor="end">12</text>
      <line x1="0"
            y1="-160"
            x2="170"
            y2="-160"
            stroke="grey"
            stroke-dasharray="5,5"/>
      <text x="-7" y="-156" font-size="12" text-anchor="end">16</text>
      <rect x="0"
            y="-20"
            height="20"
            width="30"
            fill="blue"
            stroke="black"/>
      <rect x="40"
            y="-100"
            height="100"
            width="30"
            fill="red"
            stroke="black"/>
      <rect x="80"
            y="-160"
            height="160"
            width="30"
            fill="darkorange"
            stroke="black"/>
      <rect x="120"
            y="-70"
            height="70"
            width="30"
            fill="yellow"
            stroke="black"/>
      <text x="15" y="12" font-size="12" text-anchor="middle">Book</text>
      <text x="15" y="22" font-size="12" text-anchor="middle">I</text>
      <text x="55" y="12" font-size="12" text-anchor="middle">Book</text>
      <text x="55" y="22" font-size="12" text-anchor="middle">II</text>
      <text x="95" y="12" font-size="12" text-anchor="middle">Book</text>
      <text x="95" y="22" font-size="12" text-anchor="middle">IV</text>
      <text x="135" y="12" font-size="12" text-anchor="middle">Book</text>
      <text x="134" y="22" font-size="12" text-anchor="middle">VIII</text>
      <line x1="0"
            y1="0"
            x2="0"
            y2="-170"
            stroke="black"
            stroke-width="3"
            stroke-linejoin="square"
            stroke-linecap="square"/>
      <line x1="0"
            y1="0"
            x2="170"
            y2="0"
            stroke="black"
            stroke-width="3"
            stroke-linejoin="square"
            stroke-linecap="square"/>
   </g>
</svg>
