<?xml version="1.0" encoding="UTF-8"?>
<svg xmlns="http://www.w3.org/2000/svg" height="560" width="600">
   <g transform="translate(200, 530)">
      <rect x="0"
            y="-12.987012987012987"
            height="12.987012987012987"
            width="25"
            fill="blue"
            stroke="black"
            transform="translate(0,-15) scale(-1,1) rotate(270)"/>
      <text x="-10" y="-24" font-size="15" text-anchor="end">envoy</text>
      <text x="17.98701298701299" y="-23" font-size="15" text-anchor="">1.3%</text>
      <rect x="30"
            y="-12.987012987012987"
            height="12.987012987012987"
            width="25"
            fill="blue"
            stroke="black"
            transform="translate(0,-15) scale(-1,1) rotate(270)"/>
      <text x="-10" y="-54" font-size="15" text-anchor="end">prime_minister</text>
      <text x="17.98701298701299" y="-53" font-size="15" text-anchor="">1.3%</text>
      <rect x="60"
            y="-12.987012987012987"
            height="12.987012987012987"
            width="25"
            fill="blue"
            stroke="black"
            transform="translate(0,-15) scale(-1,1) rotate(270)"/>
      <text x="-10" y="-84" font-size="15" text-anchor="end">guard</text>
      <text x="17.98701298701299" y="-83" font-size="15" text-anchor="">1.3%</text>
      <rect x="90"
            y="-12.987012987012987"
            height="12.987012987012987"
            width="25"
            fill="blue"
            stroke="black"
            transform="translate(0,-15) scale(-1,1) rotate(270)"/>
      <text x="-10" y="-114" font-size="15" text-anchor="end">monk</text>
      <text x="17.98701298701299" y="-113" font-size="15" text-anchor="">1.3%</text>
      <rect x="120"
            y="-12.987012987012987"
            height="12.987012987012987"
            width="25"
            fill="blue"
            stroke="black"
            transform="translate(0,-15) scale(-1,1) rotate(270)"/>
      <text x="-10" y="-144" font-size="15" text-anchor="end">governor</text>
      <text x="17.98701298701299" y="-143" font-size="15" text-anchor="">1.3%</text>
      <rect x="150"
            y="-12.987012987012987"
            height="12.987012987012987"
            width="25"
            fill="blue"
            stroke="black"
            transform="translate(0,-15) scale(-1,1) rotate(270)"/>
      <text x="-10" y="-174" font-size="15" text-anchor="end">daughter</text>
      <text x="17.98701298701299" y="-173" font-size="15" text-anchor="">1.3%</text>
      <rect x="180"
            y="-38.96103896103896"
            height="38.96103896103896"
            width="25"
            fill="blue"
            stroke="black"
            transform="translate(0,-15) scale(-1,1) rotate(270)"/>
      <text x="-10" y="-204" font-size="15" text-anchor="end">consort</text>
      <text x="43.96103896103896" y="-203" font-size="15" text-anchor="">3.9%</text>
      <rect x="210"
            y="-38.96103896103896"
            height="38.96103896103896"
            width="25"
            fill="blue"
            stroke="black"
            transform="translate(0,-15) scale(-1,1) rotate(270)"/>
      <text x="-10" y="-234" font-size="15" text-anchor="end">official</text>
      <text x="43.96103896103896" y="-233" font-size="15" text-anchor="">3.9%</text>
      <rect x="240"
            y="-38.96103896103896"
            height="38.96103896103896"
            width="25"
            fill="blue"
            stroke="black"
            transform="translate(0,-15) scale(-1,1) rotate(270)"/>
      <text x="-10" y="-264" font-size="15" text-anchor="end">m_official</text>
      <text x="43.96103896103896" y="-263" font-size="15" text-anchor="">3.9%</text>
      <rect x="270"
            y="-38.96103896103896"
            height="38.96103896103896"
            width="25"
            fill="blue"
            stroke="black"
            transform="translate(0,-15) scale(-1,1) rotate(270)"/>
      <text x="-10" y="-294" font-size="15" text-anchor="end">wife</text>
      <text x="43.96103896103896" y="-293" font-size="15" text-anchor="">3.9%</text>
      <rect x="300"
            y="-38.96103896103896"
            height="38.96103896103896"
            width="25"
            fill="blue"
            stroke="black"
            transform="translate(0,-15) scale(-1,1) rotate(270)"/>
      <text x="-10" y="-324" font-size="15" text-anchor="end">emp_companion</text>
      <text x="43.96103896103896" y="-323" font-size="15" text-anchor="">3.9%</text>
      <rect x="330"
            y="-64.93506493506493"
            height="64.93506493506493"
            width="25"
            fill="blue"
            stroke="black"
            transform="translate(0,-15) scale(-1,1) rotate(270)"/>
      <text x="-10" y="-354" font-size="15" text-anchor="end">emperor</text>
      <text x="69.93506493506493" y="-353" font-size="15" text-anchor="">6.49%</text>
      <rect x="360"
            y="-64.93506493506493"
            height="64.93506493506493"
            width="25"
            fill="blue"
            stroke="black"
            transform="translate(0,-15) scale(-1,1) rotate(270)"/>
      <text x="-10" y="-384" font-size="15" text-anchor="end">princess</text>
      <text x="69.93506493506493" y="-383" font-size="15" text-anchor="">6.49%</text>
      <rect x="390"
            y="-103.8961038961039"
            height="103.8961038961039"
            width="25"
            fill="blue"
            stroke="black"
            transform="translate(0,-15) scale(-1,1) rotate(270)"/>
      <text x="-10" y="-414" font-size="15" text-anchor="end">empress</text>
      <text x="108.8961038961039" y="-413" font-size="15" text-anchor="">10.39%</text>
      <rect x="420"
            y="-116.88311688311688"
            height="116.88311688311688"
            width="25"
            fill="blue"
            stroke="black"
            transform="translate(0,-15) scale(-1,1) rotate(270)"/>
      <text x="-10" y="-444" font-size="15" text-anchor="end">prince</text>
      <text x="121.88311688311688" y="-443" font-size="15" text-anchor="">11.69%</text>
      <rect x="450"
            y="-142.85714285714286"
            height="142.85714285714286"
            width="25"
            fill="blue"
            stroke="black"
            transform="translate(0,-15) scale(-1,1) rotate(270)"/>
      <text x="-10" y="-474" font-size="15" text-anchor="end">c_official</text>
      <text x="147.85714285714286" y="-473" font-size="15" text-anchor="">14.29%</text>
      <rect x="480"
            y="-233.76623376623377"
            height="233.76623376623377"
            width="25"
            fill="blue"
            stroke="black"
            transform="translate(0,-15) scale(-1,1) rotate(270)"/>
      <text x="-10" y="-504" font-size="15" text-anchor="end">unknown</text>
      <text x="238.76623376623377" y="-503" font-size="15" text-anchor="">23.38%</text>
   </g>
</svg>
