<?xml version="1.0" encoding="UTF-8"?>
<svg xmlns="http://www.w3.org/2000/svg" height="220" width="700">
   <g transform="translate(50, 200)">
      <line x1="0"
            y1="-30"
            x2="550"
            y2="-30"
            stroke="grey"
            stroke-dasharray="5,5"/>
      <text x="-7" y="-26" font-size="12" text-anchor="end">2</text>
      <line x1="0"
            y1="-60"
            x2="550"
            y2="-60"
            stroke="grey"
            stroke-dasharray="5,5"/>
      <text x="-7" y="-56" font-size="12" text-anchor="end">4</text>
      <line x1="0"
            y1="-90"
            x2="550"
            y2="-90"
            stroke="grey"
            stroke-dasharray="5,5"/>
      <text x="-7" y="-86" font-size="12" text-anchor="end">6</text>
      <line x1="0"
            y1="-120"
            x2="550"
            y2="-120"
            stroke="grey"
            stroke-dasharray="5,5"/>
      <text x="-7" y="-116" font-size="12" text-anchor="end">8</text>
      <line x1="0"
            y1="-150"
            x2="550"
            y2="-150"
            stroke="grey"
            stroke-dasharray="5,5"/>
      <text x="-7" y="-146" font-size="12" text-anchor="end">10</text>
      <rect x="0"
            y="-150"
            height="150"
            width="30"
            fill="red"
            stroke="black"/>
      <text x="15" y="10" font-size="10" text-anchor="middle">unknown</text>
      <rect x="45"
            y="-105"
            height="105"
            width="30"
            fill="red"
            stroke="black"/>
      <text x="60" y="10" font-size="10" text-anchor="middle">emperor</text>
      <rect x="90"
            y="-60"
            height="60"
            width="30"
            fill="red"
            stroke="black"/>
      <text x="105" y="10" font-size="10" text-anchor="middle">prince</text>
      <rect x="135"
            y="-60"
            height="60"
            width="30"
            fill="red"
            stroke="black"/>
      <text x="150" y="10" font-size="10" text-anchor="middle">wife</text>
      <rect x="180"
            y="-30"
            height="30"
            width="30"
            fill="red"
            stroke="black"/>
      <text x="195" y="10" font-size="10" text-anchor="middle">governor</text>
      <rect x="225"
            y="-30"
            height="30"
            width="30"
            fill="red"
            stroke="black"/>
      <text x="240" y="10" font-size="10" text-anchor="middle">c_official</text>
      <rect x="270"
            y="-15"
            height="15"
            width="30"
            fill="red"
            stroke="black"/>
      <text x="285" y="10" font-size="10" text-anchor="middle">consort</text>
      <rect x="315"
            y="-15"
            height="15"
            width="30"
            fill="red"
            stroke="black"/>
      <text x="330" y="10" font-size="10" text-anchor="middle">princess</text>
      <rect x="360"
            y="-15"
            height="15"
            width="30"
            fill="red"
            stroke="black"/>
      <text x="375" y="10" font-size="10" text-anchor="middle">city_official</text>
      <rect x="405"
            y="-15"
            height="15"
            width="30"
            fill="red"
            stroke="black"/>
      <text x="420" y="10" font-size="10" text-anchor="middle">monk</text>
      <rect x="450"
            y="-15"
            height="15"
            width="30"
            fill="red"
            stroke="black"/>
      <text x="465" y="10" font-size="10" text-anchor="middle">envoy</text>
      <rect x="495"
            y="-15"
            height="15"
            width="30"
            fill="red"
            stroke="black"/>
      <text x="510" y="10" font-size="10" text-anchor="middle">official</text>
      <line x1="0"
            y1="0"
            x2="0"
            y2="-170"
            stroke="black"
            stroke-width="3"
            stroke-linejoin="square"
            stroke-linecap="square"/>
      <line x1="0"
            y1="0"
            x2="550"
            y2="0"
            stroke="black"
            stroke-width="3"
            stroke-linejoin="square"
            stroke-linecap="square"/>
   </g>
</svg>
