<?xml version="1.0" encoding="UTF-8"?>
<svg xmlns="http://www.w3.org/2000/svg" height="180" width="500">
   <g transform="translate(140, 150)">
      <line x1="0"
            y1="-20"
            x2="200"
            y2="-20"
            stroke="grey"
            stroke-dasharray="5,5"/>
      <text x="-7" y="-16" font-size="10" text-anchor="end">2</text>
      <line x1="0"
            y1="-40"
            x2="200"
            y2="-40"
            stroke="grey"
            stroke-dasharray="5,5"/>
      <text x="-7" y="-36" font-size="10" text-anchor="end">4</text>
      <line x1="0"
            y1="-60"
            x2="200"
            y2="-60"
            stroke="grey"
            stroke-dasharray="5,5"/>
      <text x="-7" y="-56" font-size="10" text-anchor="end">6</text>
      <line x1="0"
            y1="-80"
            x2="200"
            y2="-80"
            stroke="grey"
            stroke-dasharray="5,5"/>
      <text x="-7" y="-76" font-size="10" text-anchor="end">8</text>
      <line x1="0"
            y1="-100"
            x2="200"
            y2="-100"
            stroke="grey"
            stroke-dasharray="5,5"/>
      <text x="-7" y="-96" font-size="10" text-anchor="end">10</text>
      <rect x="0"
            y="-80"
            height="80"
            width="20"
            fill="red"
            stroke="black"/>
      <rect x="40"
            y="-60"
            height="60"
            width="20"
            fill="blue"
            stroke="black"/>
      <rect x="80"
            y="-60"
            height="60"
            width="20"
            fill="darkorange"
            stroke="black"/>
      <rect x="120"
            y="-50"
            height="50"
            width="20"
            fill="red"
            stroke="black"/>
      <rect x="160"
            y="-40"
            height="40"
            width="20"
            fill="blue"
            stroke="black"/>
      <text x="10" y="10" font-size="10" text-anchor="middle">Nara</text>
      <text x="50" y="10" font-size="10" text-anchor="middle">Yamato</text>
      <text x="90" y="10" font-size="10" text-anchor="middle">Kagu</text>
      <text x="130" y="10" font-size="10" text-anchor="middle">Fujiwara</text>
      <text x="170" y="10" font-size="10" text-anchor="middle">Ise</text>
      <rect x="210"
            y="-120"
            height="10"
            width="10"
            fill="red"
            stroke="black"/>
      <text x="225" y="-112" font-size="10" text-anchor="beginning">City</text>
      <rect x="210"
            y="-100"
            height="10"
            width="10"
            fill="blue"
            stroke="black"/>
      <text x="225" y="-92" font-size="10" text-anchor="beginning">Province</text>
      <rect x="210"
            y="-80"
            height="10"
            width="10"
            fill="darkorange"
            stroke="black"/>
      <text x="225" y="-72" font-size="10" text-anchor="beginning">Mountain</text>
      <line x1="0"
            y1="0"
            x2="0"
            y2="-100"
            stroke="black"
            stroke-width="3"
            stroke-linejoin="square"
            stroke-linecap="square"/>
      <line x1="0"
            y1="0"
            x2="200"
            y2="0"
            stroke="black"
            stroke-width="3"
            stroke-linejoin="square"
            stroke-linecap="square"/>
   </g>
</svg>
