<?xml version="1.0" encoding="UTF-8"?>
<!DOCTYPE svg PUBLIC "-//W3C//DTD SVG 1.0//EN" "http://www.w3.org/TR/2001/REC-SVG-20010904/DTD/svg10.dtd">
<svg xmlns="http://www.w3.org/2000/svg" width="100%" height="100%">
        <g transform="translate(100,200) scale(0.5)">
            <rect x="30"
                y="-217.64705882352942"
                height="217.64705882352942"
                width="25"
                fill="#FC0D1B"/>
            <text x="30" y="20" fill="black" transform="rotate(30 30,40)">total-crt</text>
            <text x="30" y="-227.64705882352942">43.5%</text>
            <rect x="85"
                y="-190.93406593406593"
                height="190.93406593406593"
                width="25"
                fill="#1CBD20"/>
            <text x="85" y="20" fill="black" transform="rotate(30 85,40)">total-prv</text>
            <text x="85" y="-200.93406593406593">38.2%</text>
            <rect x="140"
                y="-6.122448979591837"
                height="6.122448979591837"
                width="25"
                fill="#FDCC3A"/>
            <text x="140" y="20" fill="black" transform="rotate(30 140,40)">total-ry</text>
            <text x="140" y="-16.122448979591837">1.2%</text>
            <rect x="195"
                y="-224.59893048128345"
                height="224.59893048128345"
                width="25"
                fill="#B2B2B2"/>
            <text x="195" y="20" fill="black" transform="rotate(30 195,40)">total-uc</text>
            <text x="195" y="-234.59893048128345">44.9%</text>
            <rect x="250"
                y="-14.285714285714286"
                height="14.285714285714286"
                width="25"
                fill="#FC6621"/>
            <text x="250" y="20" fill="black" transform="rotate(30 250,40)">total-bud</text>
            <text x="250" y="-24.285714285714285">2.9%</text>
            <rect x="305"
                y="-178.94736842105263"
                height="178.94736842105263"
                width="25"
                fill="#7F0F7E"/>
            <text x="305" y="20" fill="black" transform="rotate(30 305,40)">total-dao</text>
            <text x="305" y="-188.94736842105263">35.8%</text>
            <rect x="360"
                y="-166.66666666666663"
                height="166.66666666666663"
                width="25"
                fill="#87824A"/>
            <text x="360" y="20" fill="black" transform="rotate(30 360,40)">total-mili</text>
            <text x="360" y="-176.66666666666663">33.3%</text>
            <rect x="415"
                y="-224.63768115942028"
                height="224.63768115942028"
                width="25"
                fill="#11807F"/>
            <text x="415" y="20" fill="black" transform="rotate(30 415,40)">total-ys</text>
            <text x="415" y="-234.63768115942028">44.9%</text>
            <text x="-10" y="-172.41379310344828" text-anchor="end">Average 34.5%</text>
            <line x1="0"
                x2="600"
                y1="-172.41379310344828"
                y2="-172.41379310344828"
                stroke-width="1"
                stroke="black"
                stroke-dasharray="5, 5"/>
            <text x="600" y="20" text-anchor="end">Surname</text>
            <line x1="0"
                x2="0"
                y1="0"
                y2="-280"
                stroke-width="1"
                stroke="black"/>
            <line x1="0"
                x2="600"
                y1="0"
                y2="0"
                stroke-width="1"
                stroke="black"/>
        </g>
    <g transform="translate(420,200) scale(0.5)">
        <rect x="30"
            y="-170.58823529411765"
            height="170.58823529411765"
            width="25"
            fill="#FC0D1B"/>
        <text x="30" y="20" fill="black" transform="rotate(30 30,40)">total-crt</text>
        <text x="30" y="-180.58823529411765">34.1%</text>
        <rect x="85"
            y="-177.1978021978022"
            height="177.1978021978022"
            width="25"
            fill="#1CBD20"/>
        <text x="85" y="20" fill="black" transform="rotate(30 85,40)">total-prv</text>
        <text x="85" y="-187.1978021978022">35.4%</text>
        <rect x="140"
            y="-110.20408163265307"
            height="110.20408163265307"
            width="25"
            fill="#FDCC3A"/>
        <text x="140" y="20" fill="black" transform="rotate(30 140,40)">total-ry</text>
        <text x="140" y="-120.20408163265307">22%</text>
        <rect x="195"
            y="-18.71657754010695"
            height="18.71657754010695"
            width="25"
            fill="#B2B2B2"/>
        <text x="195" y="20" fill="black" transform="rotate(30 195,40)">total-uc</text>
        <text x="195" y="-28.71657754010695">3.7%</text>
        <rect x="250"
            y="-214.28571428571428"
            height="214.28571428571428"
            width="25"
            fill="#FC6621"/>
        <text x="250" y="20" fill="black" transform="rotate(30 250,40)">total-bud</text>
        <text x="250" y="-224.28571428571428">42.9%</text>
        <rect x="305"
            y="-184.21052631578945"
            height="184.21052631578945"
            width="25"
            fill="#7F0F7E"/>
        <text x="305" y="20" fill="black" transform="rotate(30 305,40)">total-dao</text>
        <text x="305" y="-194.21052631578945">36.8%</text>
        <rect x="360"
            y="-185.8974358974359"
            height="185.8974358974359"
            width="25"
            fill="#87824A"/>
        <text x="360" y="20" fill="black" transform="rotate(30 360,40)">total-mili</text>
        <text x="360" y="-195.8974358974359">37.2%</text>
        <rect x="415"
            y="-123.18840579710147"
            height="123.18840579710147"
            width="25"
            fill="#11807F"/>
        <text x="415" y="20" fill="black" transform="rotate(30 415,40)">total-ys</text>
        <text x="415" y="-133.18840579710147">24.6%</text>
        <text x="-10" y="-144.60511679644048" text-anchor="end">Average 28.9%</text>
        <line x1="0"
            x2="600"
            y1="-144.60511679644048"
            y2="-144.60511679644048"
            stroke-width="1"
            stroke="black"
            stroke-dasharray="5, 5"/>
        <text x="600" y="20" text-anchor="end">Title</text>
        <line x1="0"
            x2="0"
            y1="0"
            y2="-280"
            stroke-width="1"
            stroke="black"/>
        <line x1="0"
            x2="600"
            y1="0"
            y2="0"
            stroke-width="1"
            stroke="black"/>
    </g>
    <g transform="translate(740,200) scale(0.5)">
        <rect x="30"
            y="-82.35294117647058"
            height="82.35294117647058"
            width="25"
            fill="#FC0D1B"/>
        <text x="30" y="20" fill="black" transform="rotate(30 30,40)">total-crt</text>
        <text x="30" y="-92.35294117647058">16.5%</text>
        <rect x="85"
            y="-43.956043956043956"
            height="43.956043956043956"
            width="25"
            fill="#1CBD20"/>
        <text x="85" y="20" fill="black" transform="rotate(30 85,40)">total-prv</text>
        <text x="85" y="-53.956043956043956">8.8%</text>
        <rect x="140" y="-0" height="0" width="25" fill="#FDCC3A"/>
        <text x="140" y="20" fill="black" transform="rotate(30 140,40)">total-ry</text>
        <text x="140" y="-10">0%</text>
        <rect x="195"
            y="-96.2566844919786"
            height="96.2566844919786"
            width="25"
            fill="#B2B2B2"/>
        <text x="195" y="20" fill="black" transform="rotate(30 195,40)">total-uc</text>
        <text x="195" y="-106.2566844919786">19.3%</text>
        <rect x="250"
            y="-28.571428571428573"
            height="28.571428571428573"
            width="25"
            fill="#FC6621"/>
        <text x="250" y="20" fill="black" transform="rotate(30 250,40)">total-bud</text>
        <text x="250" y="-38.57142857142857">5.7%</text>
        <rect x="305"
            y="-68.42105263157896"
            height="68.42105263157896"
            width="25"
            fill="#7F0F7E"/>
        <text x="305" y="20" fill="black" transform="rotate(30 305,40)">total-dao</text>
        <text x="305" y="-78.42105263157896">13.7%</text>
        <rect x="360"
            y="-70.51282051282051"
            height="70.51282051282051"
            width="25"
            fill="#87824A"/>
        <text x="360" y="20" fill="black" transform="rotate(30 360,40)">total-mili</text>
        <text x="360" y="-80.51282051282051">14.1%</text>
        <rect x="415"
            y="-79.71014492753622"
            height="79.71014492753622"
            width="25"
            fill="#11807F"/>
        <text x="415" y="20" fill="black" transform="rotate(30 415,40)">total-ys</text>
        <text x="415" y="-89.71014492753622">15.9%</text>
        <text x="-10" y="-62.29143492769744" text-anchor="end">Average 12.5%</text>
        <line x1="0"
            x2="600"
            y1="-62.29143492769744"
            y2="-62.29143492769744"
            stroke-width="1"
            stroke="black"
            stroke-dasharray="5, 5"/>
        <text x="600" y="20" text-anchor="end">Given Name</text>
        <line x1="0"
            x2="0"
            y1="0"
            y2="-280"
            stroke-width="1"
            stroke="black"/>
        <line x1="0"
            x2="600"
            y1="0"
            y2="0"
            stroke-width="1"
            stroke="black"/>
    </g>
    <g transform="translate(100,400) scale(0.5)">
        <rect x="30"
            y="-5.042016806722689"
            height="5.042016806722689"
            width="25"
            fill="#FC0D1B"/>
        <text x="30" y="20" fill="black" transform="rotate(30 30,40)">total-crt</text>
        <text x="30" y="-15.042016806722689">1%</text>
        <rect x="85"
            y="-72.80219780219781"
            height="72.80219780219781"
            width="25"
            fill="#1CBD20"/>
        <text x="85" y="20" fill="black" transform="rotate(30 85,40)">total-prv</text>
        <text x="85" y="-82.80219780219781">14.6%</text>
        <rect x="140" y="-0" height="0" width="25" fill="#FDCC3A"/>
        <text x="140" y="20" fill="black" transform="rotate(30 140,40)">total-ry</text>
        <text x="140" y="-10">0%</text>
        <rect x="195"
            y="-34.75935828877005"
            height="34.75935828877005"
            width="25"
            fill="#B2B2B2"/>
        <text x="195" y="20" fill="black" transform="rotate(30 195,40)">total-uc</text>
        <text x="195" y="-44.75935828877005">7%</text>
        <rect x="250"
            y="-14.285714285714286"
            height="14.285714285714286"
            width="25"
            fill="#FC6621"/>
        <text x="250" y="20" fill="black" transform="rotate(30 250,40)">total-bud</text>
        <text x="250" y="-24.285714285714285">2.9%</text>
        <rect x="305"
            y="-47.36842105263158"
            height="47.36842105263158"
            width="25"
            fill="#7F0F7E"/>
        <text x="305" y="20" fill="black" transform="rotate(30 305,40)">total-dao</text>
        <text x="305" y="-57.36842105263158">9.5%</text>
        <rect x="360"
            y="-19.23076923076923"
            height="19.23076923076923"
            width="25"
            fill="#87824A"/>
        <text x="360" y="20" fill="black" transform="rotate(30 360,40)">total-mili</text>
        <text x="360" y="-29.23076923076923">3.8%</text>
        <rect x="415"
            y="-7.246376811594203"
            height="7.246376811594203"
            width="25"
            fill="#11807F"/>
        <text x="415" y="20" fill="black" transform="rotate(30 415,40)">total-ys</text>
        <text x="415" y="-17.246376811594203">1.4%</text>
        <text x="-10" y="-25.305895439377085" text-anchor="end">Average 5.1%</text>
        <line x1="0"
            x2="600"
            y1="-25.305895439377085"
            y2="-25.305895439377085"
            stroke-width="1"
            stroke="black"
            stroke-dasharray="5, 5"/>
        <text x="600" y="20" text-anchor="end">Location</text>
        <line x1="0"
            x2="0"
            y1="0"
            y2="-280"
            stroke-width="1"
            stroke="black"/>
        <line x1="0"
            x2="600"
            y1="0"
            y2="0"
            stroke-width="1"
            stroke="black"/>
    </g>
    <g transform="translate(420,400) scale(0.5)">
        <rect x="30"
            y="-15.966386554621847"
            height="15.966386554621847"
            width="25"
            fill="#FC0D1B"/>
        <text x="30" y="20" fill="black" transform="rotate(30 30,40)">total-crt</text>
        <text x="30" y="-25.96638655462185">3.2%</text>
        <rect x="85"
            y="-4.120879120879121"
            height="4.120879120879121"
            width="25"
            fill="#1CBD20"/>
        <text x="85" y="20" fill="black" transform="rotate(30 85,40)">total-prv</text>
        <text x="85" y="-14.12087912087912">.8%</text>
        <rect x="140" y="-0" height="0" width="25" fill="#FDCC3A"/>
        <text x="140" y="20" fill="black" transform="rotate(30 140,40)">total-ry</text>
        <text x="140" y="-10">0%</text>
        <rect x="195"
            y="-90.90909090909092"
            height="90.90909090909092"
            width="25"
            fill="#B2B2B2"/>
        <text x="195" y="20" fill="black" transform="rotate(30 195,40)">total-uc</text>
        <text x="195" y="-100.90909090909092">18.2%</text>
        <rect x="250" y="-0" height="0" width="25" fill="#FC6621"/>
        <text x="250" y="20" fill="black" transform="rotate(30 250,40)">total-bud</text>
        <text x="250" y="-10">0%</text>
        <rect x="305"
            y="-5.263157894736842"
            height="5.263157894736842"
            width="25"
            fill="#7F0F7E"/>
        <text x="305" y="20" fill="black" transform="rotate(30 305,40)">total-dao</text>
        <text x="305" y="-15.263157894736842">1.1%</text>
        <rect x="360"
            y="-38.46153846153846"
            height="38.46153846153846"
            width="25"
            fill="#87824A"/>
        <text x="360" y="20" fill="black" transform="rotate(30 360,40)">total-mili</text>
        <text x="360" y="-48.46153846153846">7.7%</text>
        <rect x="415"
            y="-57.971014492753625"
            height="57.971014492753625"
            width="25"
            fill="#11807F"/>
        <text x="415" y="20" fill="black" transform="rotate(30 415,40)">total-ys</text>
        <text x="415" y="-67.97101449275362">11.6%</text>
        <text x="-10" y="-21.69076751946607" text-anchor="end">Average 4.3%</text>
        <line x1="0"
            x2="600"
            y1="-21.69076751946607"
            y2="-21.69076751946607"
            stroke-width="1"
            stroke="black"
            stroke-dasharray="5, 5"/>
        <text x="600" y="20" text-anchor="end">Family Ranking</text>
        <line x1="0"
            x2="0"
            y1="0"
            y2="-280"
            stroke-width="1"
            stroke="black"/>
        <line x1="0"
            x2="600"
            y1="0"
            y2="0"
            stroke-width="1"
            stroke="black"/>
    </g>
    <g transform="translate(740,400) scale(0.5)">
        <rect x="30"
            y="-6.722689075630253"
            height="6.722689075630253"
            width="25"
            fill="#FC0D1B"/>
        <text x="30" y="20" fill="black" transform="rotate(30 30,40)">total-crt</text>
        <text x="30" y="-16.722689075630253">1.3%</text>
        <rect x="85"
            y="-9.615384615384615"
            height="9.615384615384615"
            width="25"
            fill="#1CBD20"/>
        <text x="85" y="20" fill="black" transform="rotate(30 85,40)">total-prv</text>
        <text x="85" y="-19.615384615384613">1.9%</text>
        <rect x="140"
            y="-4.081632653061225"
            height="4.081632653061225"
            width="25"
            fill="#FDCC3A"/>
        <text x="140" y="20" fill="black" transform="rotate(30 140,40)">total-ry</text>
        <text x="140" y="-14.081632653061224">.8%</text>
        <rect x="195"
            y="-34.75935828877005"
            height="34.75935828877005"
            width="25"
            fill="#B2B2B2"/>
        <text x="195" y="20" fill="black" transform="rotate(30 195,40)">total-uc</text>
        <text x="195" y="-44.75935828877005">7%</text>
        <rect x="250"
            y="-14.285714285714286"
            height="14.285714285714286"
            width="25"
            fill="#FC6621"/>
        <text x="250" y="20" fill="black" transform="rotate(30 250,40)">total-bud</text>
        <text x="250" y="-24.285714285714285">2.9%</text>
        <rect x="305" y="-0" height="0" width="25" fill="#7F0F7E"/>
        <text x="305" y="20" fill="black" transform="rotate(30 305,40)">total-dao</text>
        <text x="305" y="-10">0%</text>
        <rect x="360"
            y="-19.23076923076923"
            height="19.23076923076923"
            width="25"
            fill="#87824A"/>
        <text x="360" y="20" fill="black" transform="rotate(30 360,40)">total-mili</text>
        <text x="360" y="-29.23076923076923">3.8%</text>
        <rect x="415" y="-0" height="0" width="25" fill="#11807F"/>
        <text x="415" y="20" fill="black" transform="rotate(30 415,40)">total-ys</text>
        <text x="415" y="-10">0%</text>
        <text x="-10" y="-11.679644048943272" text-anchor="end">Average 2.3%</text>
        <line x1="0"
            x2="600"
            y1="-11.679644048943272"
            y2="-11.679644048943272"
            stroke-width="1"
            stroke="black"
            stroke-dasharray="5, 5"/>
        <text x="600" y="20" text-anchor="end">Kinship</text>
        <line x1="0"
            x2="0"
            y1="0"
            y2="-280"
            stroke-width="1"
            stroke="black"/>
        <line x1="0"
            x2="600"
            y1="0"
            y2="0"
            stroke-width="1"
            stroke="black"/>
    </g>
</svg>