<?xml version="1.0" encoding="UTF-8"?>
<svg xmlns="http://www.w3.org/2000/svg">
   <g transform="translate(200,450) scale(1.5)">
      <rect x="30"
            y="-5.042016806722689"
            height="5.042016806722689"
            width="25"
            fill="#FC0D1B"/>
      <text x="30" y="20" fill="black" transform="rotate(30 30,40)">total-crt</text>
      <text x="30" y="-15.042016806722689">1%</text>
      <rect x="85"
            y="-72.80219780219781"
            height="72.80219780219781"
            width="25"
            fill="#1CBD20"/>
      <text x="85" y="20" fill="black" transform="rotate(30 85,40)">total-prv</text>
      <text x="85" y="-82.80219780219781">14.6%</text>
      <rect x="140" y="-0" height="0" width="25" fill="#FDCC3A"/>
      <text x="140" y="20" fill="black" transform="rotate(30 140,40)">total-ry</text>
      <text x="140" y="-10">0%</text>
      <rect x="195"
            y="-34.75935828877005"
            height="34.75935828877005"
            width="25"
            fill="#B2B2B2"/>
      <text x="195" y="20" fill="black" transform="rotate(30 195,40)">total-uc</text>
      <text x="195" y="-44.75935828877005">7%</text>
      <rect x="250"
            y="-14.285714285714286"
            height="14.285714285714286"
            width="25"
            fill="#FC6621"/>
      <text x="250" y="20" fill="black" transform="rotate(30 250,40)">total-bud</text>
      <text x="250" y="-24.285714285714285">2.9%</text>
      <rect x="305"
            y="-47.36842105263158"
            height="47.36842105263158"
            width="25"
            fill="#7F0F7E"/>
      <text x="305" y="20" fill="black" transform="rotate(30 305,40)">total-dao</text>
      <text x="305" y="-57.36842105263158">9.5%</text>
      <rect x="360"
            y="-19.23076923076923"
            height="19.23076923076923"
            width="25"
            fill="#87824A"/>
      <text x="360" y="20" fill="black" transform="rotate(30 360,40)">total-mili</text>
      <text x="360" y="-29.23076923076923">3.8%</text>
      <rect x="415"
            y="-7.246376811594203"
            height="7.246376811594203"
            width="25"
            fill="#11807F"/>
      <text x="415" y="20" fill="black" transform="rotate(30 415,40)">total-ys</text>
      <text x="415" y="-17.246376811594203">1.4%</text>
      <text x="-10" y="-25.305895439377085" text-anchor="end">Average 5.1%</text>
      <line x1="0"
            x2="600"
            y1="-25.305895439377085"
            y2="-25.305895439377085"
            stroke-width="1"
            stroke="black"
            stroke-dasharray="5, 5"/>
      <text x="600" y="20" text-anchor="end">Location</text>
      <line x1="0"
            x2="0"
            y1="0"
            y2="-280"
            stroke-width="1"
            stroke="black"/>
      <line x1="0"
            x2="600"
            y1="0"
            y2="0"
            stroke-width="1"
            stroke="black"/>
   </g>
</svg>
