<?xml version="1.0" encoding="UTF-8"?>
<!DOCTYPE svg
  SYSTEM "compact">
<svg xmlns="http://www.w3.org/2000/svg">
   <g transform="translate(200,400)">
      <line x1="0"
            x2="0"
            y1="0"
            y2="-300"
            stroke-width="1"
            stroke="black"/>
      <line x1="0"
            x2="600"
            y1="0"
            y2="0"
            stroke-width="1"
            stroke="black"/>
      <rect x="30" y="-268" height="268" width="25" fill="#EF591C"/>
      <text x="30" y="20" text-anchor="start">P S</text>
      <text x="30" y="-288" text-anchor="start">268</text>
      <rect x="85" y="-186" height="186" width="25" fill="#EF591C"/>
      <text x="85" y="20" text-anchor="start">ZH</text>
      <text x="85" y="-206" text-anchor="start">186</text>
      <rect x="140" y="-130" height="130" width="25" fill="#EF591C"/>
      <text x="140" y="20" text-anchor="start">S G</text>
      <text x="140" y="-150" text-anchor="start">130</text>
      <rect x="195" y="-79" height="79" width="25" fill="#EF591C"/>
      <text x="195" y="20" text-anchor="start">P</text>
      <text x="195" y="-99" text-anchor="start">79</text>
      <rect x="250" y="-52" height="52" width="25" fill="#EF591C"/>
      <text x="250" y="20" text-anchor="start">P S L</text>
      <text x="250" y="-72" text-anchor="start">52</text>
      <rect x="305" y="-51" height="51" width="25" fill="#EF591C"/>
      <text x="305" y="20" text-anchor="start">P S G</text>
      <text x="305" y="-71" text-anchor="start">51</text>
      <rect x="360" y="-51" height="51" width="25" fill="#EF591C"/>
      <text x="360" y="20" text-anchor="start">S FR</text>
      <text x="360" y="-71" text-anchor="start">51</text>
      <rect x="415" y="-27" height="27" width="25" fill="#EF591C"/>
      <text x="415" y="20" text-anchor="start">P F</text>
      <text x="415" y="-47" text-anchor="start">27</text>
      <rect x="470" y="-15" height="15" width="25" fill="#EF591C"/>
      <text x="470" y="20" text-anchor="start">S</text>
      <text x="470" y="-35" text-anchor="start">15</text>
      <rect x="525" y="-15" height="15" width="25" fill="#EF591C"/>
      <text x="525" y="20" text-anchor="start">S L</text>
      <text x="525" y="-35" text-anchor="start">15</text>
      <text x="300"
            y="60"
            text-anchor="middle"
            font-size="20"
            font-weight="100">Top 10 Name Combinations</text>
      <text x="450" y="-260" font-weight="100" font-size="12">*T: Title.</text>
      <text x="450" y="-240" font-weight="100" font-size="12">*S: Surname.</text>
      <text x="450" y="-220" font-weight="100" font-size="12">*ZH: Zhi.</text>
      <text x="450" y="-200" font-weight="100" font-size="12">*G: Given Name.</text>
      <text x="450" y="-180" font-weight="100" font-size="12">*L: Location.</text>
      <text x="450" y="-160" font-weight="100" font-size="12">*FR: Family Ranking.</text>
      <text x="450" y="-140" font-weight="100" font-size="12">*F: Faming.</text>
   </g>
</svg>
