<?xml version="1.0" encoding="UTF-8"?>
<svg xmlns="http://www.w3.org/2000/svg">
   <g transform="translate(200,450) scale(1.5)">
      <rect x="30"
            y="-1.6806722689075633"
            height="1.6806722689075633"
            width="25"
            fill="#FC0D1B"/>
      <text x="30" y="20" fill="black" transform="rotate(30 30,40)">total-crt</text>
      <text x="30" y="-11.680672268907564">.3%</text>
      <rect x="85"
            y="-1.3736263736263736"
            height="1.3736263736263736"
            width="25"
            fill="#1CBD20"/>
      <text x="85" y="20" fill="black" transform="rotate(30 85,40)">total-prv</text>
      <text x="85" y="-11.373626373626374">.3%</text>
      <rect x="140" y="-0" height="0" width="25" fill="#FDCC3A"/>
      <text x="140" y="20" fill="black" transform="rotate(30 140,40)">total-ry</text>
      <text x="140" y="-10">0%</text>
      <rect x="195" y="-0" height="0" width="25" fill="#B2B2B2"/>
      <text x="195" y="20" fill="black" transform="rotate(30 195,40)">total-uc</text>
      <text x="195" y="-10">0%</text>
      <rect x="250" y="-0" height="0" width="25" fill="#FC6621"/>
      <text x="250" y="20" fill="black" transform="rotate(30 250,40)">total-bud</text>
      <text x="250" y="-10">0%</text>
      <rect x="305" y="-0" height="0" width="25" fill="#7F0F7E"/>
      <text x="305" y="20" fill="black" transform="rotate(30 305,40)">total-dao</text>
      <text x="305" y="-10">0%</text>
      <rect x="360" y="-0" height="0" width="25" fill="#87824A"/>
      <text x="360" y="20" fill="black" transform="rotate(30 360,40)">total-mili</text>
      <text x="360" y="-10">0%</text>
      <rect x="415"
            y="-7.246376811594203"
            height="7.246376811594203"
            width="25"
            fill="#11807F"/>
      <text x="415" y="20" fill="black" transform="rotate(30 415,40)">total-ys</text>
      <text x="415" y="-17.246376811594203">1.4%</text>
      <text x="-10" y="-1.1123470522803114" text-anchor="end">Average .2%</text>
      <line x1="0"
            x2="600"
            y1="-1.1123470522803114"
            y2="-1.1123470522803114"
            stroke-width="1"
            stroke="black"
            stroke-dasharray="5, 5"/>
      <text x="600" y="20" text-anchor="end">Zi</text>
      <line x1="0"
            x2="0"
            y1="0"
            y2="-280"
            stroke-width="1"
            stroke="black"/>
      <line x1="0"
            x2="600"
            y1="0"
            y2="0"
            stroke-width="1"
            stroke="black"/>
   </g>
</svg>
